# xmcd
#
# Track frame offsets: 
#        150
#        15698
#        33440
#        51347
#        70548
#        87558
#        100667
#        116667
#        135455
#        151560
#        155593
#        172478
#        179593
#        198635
#        214053
#        235698
#        245388
#        264780
#        280592
#        298395
#        308833
#        323902
#
# Disc length: 4736 seconds
#
# Revision: 1
# Processed by: cddbd v1.5.2PL0 Copyright (c) Steve Scherf et al.
# Submitted via: ExactAudioCopy v1.0b6
#
DISCID=3b127e16
DTITLE=Moby - Play
DYEAR=2000
DGENRE=Electronic
TTITLE0=Honey
TTITLE1=Find My Baby
TTITLE2=Porcelain
TTITLE3=Why Does My Heart Feel So Bad?
TTITLE4=South Side
TTITLE5=Rushing
TTITLE6=Bodyrock
TTITLE7=Natural Blues
TTITLE8=Machete
TTITLE9=7
TTITLE10=Run On
TTITLE11=Down Slow
TTITLE12=If Things Were Perfect
TTITLE13=Everloving
TTITLE14=Inside
TTITLE15=Guitar Flute and String
TTITLE16=The Sky Is Broken
TTITLE17=My Weakness
TTITLE18=Go
TTITLE19=I Like To Score
TTITLE20=Anthem
TTITLE21=Living
EXTD=
EXTT0=
EXTT1=
EXTT2=
EXTT3=
EXTT4=
EXTT5=
EXTT6=
EXTT7=
EXTT8=
EXTT9=
EXTT10=
EXTT11=
EXTT12=
EXTT13=
EXTT14=
EXTT15=
EXTT16=
EXTT17=
EXTT18=
EXTT19=
EXTT20=
EXTT21=
PLAYORDER=
